<svg version="1.1" xmlns="http://www.w3.org/2000/svg" xmlns:xlink="http://www.w3.org/1999/xlink" width="171.92857" height="51.10016" viewBox="0,0,171.92857,51.10016"><g transform="translate(-154.03572,-154.44992)"><g data-paper-data="{&quot;isPaintingLayer&quot;:true}" fill-rule="nonzero" stroke-linejoin="miter" stroke-miterlimit="10" stroke-dasharray="" stroke-dashoffset="0" style="mix-blend-mode: normal"><path d="M154.28572,205.30008v-50.60016h171.42857v50.60016z" fill="#ffffff" stroke="#000000" stroke-width="0.5" stroke-linecap="butt"/><text transform="translate(208.83116,186.99072) scale(0.40445,0.40445)" font-size="40" xml:space="preserve" fill="#000000" fill-rule="nonzero" stroke="none" stroke-width="1" stroke-linecap="butt" stroke-linejoin="miter" stroke-miterlimit="10" stroke-dasharray="" stroke-dashoffset="0" font-family="Sans Serif" font-weight="normal" text-anchor="start" style="mix-blend-mode: normal"><tspan x="0" dy="0">Unmute Music</tspan></text><g fill="#000000" stroke="none" stroke-linecap="butt"><path d="M170.41888,199.48052v-37.01298h9.38358v37.01298z" stroke-width="0"/><path d="M162.0779,192.7035v-23.98024h11.46881v23.98024z" stroke-width="0"/><path d="M185.50239,195.9003c-2.15419,-1.07709 -1.07709,-3.23128 -1.07709,-3.23128l0.97246,-1.66856c1.76395,-1.5778 1.91197,-3.78804 1.90113,-6.11661c-0.02296,-4.93286 0.92198,-10.72132 -2.94375,-14.45757c0,0 -1.70303,-1.70303 0,-3.40606c1.70303,-1.70303 3.40607,0 3.40607,0c4.39188,4.49832 4.35458,9.86006 4.35458,15.77839c0,4.48886 -0.11429,8.20827 -3.31196,11.60791l-0.07016,0.41668c0,0 -1.07709,2.15418 -3.23127,1.07709z" stroke-width="0.5"/><path d="M194.20826,196.26521c-2.15419,-1.07709 -1.07709,-3.23127 -1.07709,-3.23127l0.97246,-1.66857c1.76395,-1.5778 1.91196,-3.78804 1.90112,-6.11661c-0.02296,-4.93286 0.92198,-10.72132 -2.94375,-14.45757c0,0 -1.70303,-1.70303 0,-3.40606c1.70303,-1.70303 3.40607,0 3.40607,0c4.39188,4.49832 4.35458,9.86006 4.35458,15.77839c0,4.48886 -0.11429,8.20827 -3.31196,11.60791l-0.07015,0.41668c0,0 -1.07709,2.15418 -3.23128,1.07709z" stroke-width="0.5"/></g><path d="M163.37662,159.87013l38.96104,38.96104" fill="none" stroke="#000000" stroke-width="5" stroke-linecap="round"/><path d="M202.33766,159.87013l-40.25974,38.31169" fill="none" stroke="#000000" stroke-width="5" stroke-linecap="round"/></g></g></svg>